<svg width="850" height="221" viewBox="0 0 850 221" fill="none" xmlns="http://www.w3.org/2000/svg">
<path d="M641.892 218.031L730.085 96.4362V131.01L645.701 12.9312H699.613L757.92 95.2642L735.359 95.5572L792.787 12.9312H844.355L760.557 128.959V94.9712L849.336 218.031H794.545L734.187 131.01H755.869L696.39 218.031H641.892Z" fill="white"/>
<path d="M573.979 218.031V0.625122H619.688V218.031H573.979Z" fill="white"/>
<path d="M489.834 218.031V187.266L486.904 180.527V125.443C486.904 115.676 483.876 108.058 477.821 102.589C471.961 97.1198 462.878 94.3851 450.572 94.3851C442.172 94.3851 433.871 95.7524 425.667 98.4871C417.658 101.026 410.821 104.542 405.157 109.035L388.749 77.0981C397.343 71.0428 407.696 66.3548 419.807 63.0341C431.917 59.7134 444.223 58.0531 456.725 58.0531C480.751 58.0531 499.405 63.7178 512.688 75.0471C525.97 86.3764 532.612 104.054 532.612 128.08V218.031H489.834ZM441.782 220.375C429.476 220.375 418.928 218.324 410.138 214.222C401.348 209.925 394.609 204.162 389.921 196.935C385.233 189.708 382.889 181.601 382.889 172.616C382.889 163.24 385.135 155.036 389.628 148.004C394.316 140.972 401.641 135.503 411.603 131.596C421.565 127.494 434.554 125.443 450.572 125.443H492.471V152.106H455.553C444.809 152.106 437.387 153.864 433.285 157.38C429.378 160.896 427.425 165.291 427.425 170.565C427.425 176.425 429.671 181.113 434.164 184.629C438.852 187.95 445.2 189.61 453.209 189.61C460.827 189.61 467.663 187.852 473.719 184.336C479.774 180.625 484.169 175.253 486.904 168.221L493.936 189.317C490.615 199.474 484.56 207.19 475.77 212.464C466.98 217.738 455.65 220.375 441.782 220.375Z" fill="white"/>
<path d="M290.825 220.375C272.854 220.375 257.032 216.859 243.359 209.827C229.881 202.795 219.431 193.224 212.008 181.113C204.585 168.807 200.874 154.841 200.874 139.214C200.874 123.392 204.488 109.426 211.715 97.3151C219.138 85.0091 229.197 75.4378 241.894 68.6011C254.591 61.5691 268.948 58.0531 284.965 58.0531C300.396 58.0531 314.265 61.3738 326.571 68.0151C339.072 74.4611 348.937 83.8371 356.164 96.1431C363.391 108.254 367.005 122.806 367.005 139.8C367.005 141.558 366.907 143.609 366.712 145.953C366.517 148.102 366.321 150.153 366.126 152.106H238.085V125.443H342.1L324.52 133.354C324.52 125.15 322.86 118.02 319.539 111.965C316.218 105.91 311.628 101.222 305.768 97.9011C299.908 94.3851 293.071 92.6271 285.258 92.6271C277.445 92.6271 270.51 94.3851 264.455 97.9011C258.595 101.222 254.005 106.007 250.684 112.258C247.363 118.313 245.703 125.541 245.703 133.94V140.972C245.703 149.567 247.559 157.185 251.27 163.826C255.177 170.272 260.548 175.253 267.385 178.769C274.417 182.09 282.621 183.75 291.997 183.75C300.396 183.75 307.721 182.48 313.972 179.941C320.418 177.402 326.278 173.593 331.552 168.514L355.871 194.884C348.644 203.088 339.561 209.436 328.622 213.929C317.683 218.226 305.084 220.375 290.825 220.375Z" fill="white"/>
<path d="M0.359375 218.031V12.9312H89.1384C107.5 12.9312 123.322 15.9588 136.604 22.0142C149.887 27.8742 160.142 36.3711 167.369 47.5052C174.597 58.6392 178.21 71.9218 178.21 87.3532C178.21 102.589 174.597 115.774 167.369 126.908C160.142 137.847 149.887 146.246 136.604 152.106C123.322 157.966 107.5 160.896 89.1384 160.896H26.7294L47.8254 140.093V218.031H0.359375ZM130.744 218.031L79.4694 143.609H130.158L182.019 218.031H130.744ZM47.8254 145.367L26.7294 123.099H86.5014C101.151 123.099 112.09 119.974 119.317 113.723C126.545 107.277 130.158 98.4872 130.158 87.3532C130.158 76.0238 126.545 67.2338 119.317 60.9832C112.09 54.7325 101.151 51.6072 86.5014 51.6072H26.7294L47.8254 29.0462V145.367Z" fill="white"/>
</svg>
