<svg width="583" height="583" viewBox="0 0 583 583" fill="none" xmlns="http://www.w3.org/2000/svg">
<rect x="0.148438" y="0.165771" width="582.638" height="582.638" rx="107" fill="url(#paint0_linear_16_42)"/>
<path d="M311.576 385.73C311.576 390.701 307.546 394.73 302.576 394.73H280.362C275.391 394.73 271.362 390.701 271.362 385.73V363.517C271.362 358.546 275.391 354.517 280.362 354.517H302.576C307.546 354.517 311.576 358.546 311.576 363.517V385.73Z" fill="white"/>
<path fill-rule="evenodd" clip-rule="evenodd" d="M460.774 240.242C462.462 241.93 463.41 244.219 463.41 246.605L463.421 391.817C463.421 394.192 462.483 396.47 460.81 398.156L387.277 472.277C385.587 473.98 383.287 474.938 380.887 474.938H203.7C201.301 474.938 199.001 473.981 197.311 472.278L123.781 398.177C122.108 396.491 121.169 394.212 121.169 391.837L121.183 246.604C121.183 244.218 122.131 241.929 123.819 240.241L273.615 90.4453C273.619 90.4415 273.625 90.4415 273.628 90.4453V90.4453C273.632 90.4491 273.638 90.4491 273.642 90.4453L285.946 78.1419C289.461 74.6274 295.159 74.6275 298.674 78.1421L460.774 240.242ZM230.497 335.375C228.809 337.063 227.861 339.352 227.861 341.739V438.884C227.861 443.854 231.89 447.884 236.861 447.884H347.727C352.698 447.884 356.727 443.854 356.727 438.884V341.741C356.727 339.354 355.779 337.064 354.091 335.377L298.657 279.942C295.142 276.427 289.443 276.427 285.929 279.942L230.497 335.375ZM149.08 381.836C149.08 384.223 150.028 386.512 151.716 388.2L184.588 421.072C190.257 426.741 199.952 422.726 199.952 414.708V340.083C199.952 337.696 199.003 335.407 197.316 333.719L164.444 300.847C158.774 295.178 149.08 299.193 149.08 307.211V381.836ZM387.272 333.719C385.584 335.407 384.636 337.696 384.636 340.083V414.32C384.636 422.338 394.33 426.354 400 420.684L432.872 387.812C434.56 386.124 435.508 383.835 435.508 381.448V307.211C435.508 299.193 425.814 295.178 420.144 300.847L387.272 333.719ZM159.661 243.867C156.147 247.382 156.147 253.081 159.661 256.595L208.37 305.304C211.885 308.819 217.583 308.819 221.098 305.304L271.995 254.406C272.139 254.261 272.139 254.028 271.995 253.883V253.883C271.851 253.739 271.851 253.505 271.995 253.361L272.147 253.209C272.374 252.982 272.374 252.612 272.147 252.384L218.009 198.247C214.494 194.732 208.796 194.732 205.281 198.247L159.661 243.867ZM312.441 252.385C312.213 252.612 312.213 252.981 312.441 253.209L312.592 253.36C312.737 253.505 312.737 253.739 312.592 253.883V253.883C312.447 254.027 312.447 254.262 312.591 254.406L363.489 305.304C367.004 308.819 372.702 308.819 376.217 305.304L424.928 256.593C428.442 253.079 428.442 247.38 424.928 243.866L379.308 198.246C375.793 194.731 370.095 194.731 366.58 198.246L312.441 252.385ZM237.744 165.784C234.23 169.299 234.23 174.998 237.744 178.512L285.93 226.698C289.444 230.212 295.143 230.212 298.657 226.698L346.845 178.51C350.359 174.996 350.359 169.297 346.845 165.783L298.659 117.597C295.145 114.083 289.446 114.083 285.931 117.597L237.744 165.784Z" fill="white"/>
<defs>
<linearGradient id="paint0_linear_16_42" x1="530.139" y1="25.1206" x2="75.5253" y2="556.548" gradientUnits="userSpaceOnUse">
<stop stop-color="#00C4FF"/>
<stop offset="1" stop-color="#780099"/>
</linearGradient>
</defs>
</svg>
